<?xml version="1.0"?>
<svg xmlns="http://www.w3.org/2000/svg" height="512px" viewBox="0 0 512 512" width="512px" class=""><g><path d="m240 30h-43.167969l-3.539062-9.988281c-4.246094-11.96875-15.613281-20.011719-28.292969-20.011719s-24.046875 8.042969-28.292969 20.011719l-3.539062 9.988281h-43.167969v60h150zm0 0" data-original="#000000" class="active-path" data-old_color="#2B2D42" fill="#8D99AE"/><path d="m270 120h-210v-60h-60v452h330v-452h-60zm0 300h-120v-30h120zm0-60h-210v-30h210zm0-60h-210v-30h210zm0-60h-210v-30h210zm0-60h-210v-30h210zm0 0" data-original="#000000" class="active-path" data-old_color="#2B2D42" fill="#8D99AE"/><path d="m360 410.539062 30 60v41.460938h30v-41.460938l30-60v-228.539062h-90zm0 0" data-original="#000000" class="active-path" data-old_color="#2B2D42" fill="#8D99AE"/><path d="m420 62v-30h-30v30h-30v90h90v-90zm0 0" data-original="#000000" class="active-path" data-old_color="#2B2D42" fill="#8D99AE"/><path d="m450 152v30h32v120h30v-150zm0 0" data-original="#000000" class="active-path" data-old_color="#2B2D42" fill="#8D99AE"/></g> </svg>
