<?xml version="1.0"?>
<svg xmlns="http://www.w3.org/2000/svg" height="512px" viewBox="-41 0 512 512" width="512px" class=""><g><path d="m340 467v-422c0-17.90625 7.894531-33.996094 20.378906-45h-315.378906c-24.851562 0-45 20.148438-45 45v422c0 24.851562 20.148438 45 45 45h315.378906c-12.484375-11.003906-20.378906-27.09375-20.378906-45zm-280-226h160v30h-160zm0 60h160v30h-160zm0 60h160v30h-160zm220 90h-220v-30h220zm0-60h-30v-30h30zm0-60h-30v-30h30zm0-60h-30v-30h30zm0-60h-220v-30h220zm0-60h-220v-90h220zm0 0" data-original="#000000" class="active-path" data-old_color="#000000" fill="#8D99AE"/><path d="m90 91h160v30h-160zm0 0" data-original="#000000" class="active-path" data-old_color="#000000" fill="#8D99AE"/><path d="m430 45c0-16.542969-13.457031-30-30-30s-30 13.457031-30 30v61h60zm0 0" data-original="#000000" class="active-path" data-old_color="#000000" fill="#8D99AE"/><path d="m370 467c0 16.542969 13.457031 30 30 30s30-13.457031 30-30v-61h-60zm0 0" data-original="#000000" class="active-path" data-old_color="#000000" fill="#8D99AE"/></g> </svg>
